HIERARCHY
ROOT hip
{
	OFFSET 0.000000 0.000000 0.000000 
	CHANNELS 6 Xposition Yposition Zposition Xrotation Zrotation Yrotation
	JOINT abdomen
	{
		OFFSET 0.000000 3.402643 0.000000 
		CHANNELS 3 Xrotation Zrotation Yrotation
		JOINT chest
		{
			OFFSET 0.000000 8.438565 -0.680529 
			CHANNELS 3 Xrotation Zrotation Yrotation
			JOINT neck
			{
				OFFSET 0.000000 10.207942 -0.272212 
				CHANNELS 3 Xrotation Zrotation Yrotation
				JOINT head
				{
					OFFSET 0.000000 3.130431 0.000000 
					CHANNELS 3 Xrotation Zrotation Yrotation
					End Site
					{
						OFFSET 0.000000 3.130435 0.000000 
					}
				}
			}
			JOINT lCollar
			{
				OFFSET 3.470700 6.669187 -0.816635 
				CHANNELS 3 Yrotation Zrotation Xrotation
				JOINT lShldr
				{
					OFFSET 3.198488 0.000000 0.000000 
					CHANNELS 3 Zrotation Yrotation Xrotation
					JOINT lForeArm
					{
						OFFSET 10.139888 0.000000 0.000000 
						CHANNELS 3 Yrotation Zrotation Xrotation
						JOINT lHand
						{
							OFFSET 8.370511 0.000000 0.000000 
							CHANNELS 3 Zrotation Yrotation Xrotation
							End Site
							{
								OFFSET 4.083176 0.000000 0.000000 
							}
						}
					}
				}
			}
			JOINT rCollar
			{
				OFFSET -3.470700 6.669187 -0.816635 
				CHANNELS 3 Yrotation Zrotation Xrotation
				JOINT rShldr
				{
					OFFSET -3.198488 0.000000 0.000000 
					CHANNELS 3 Zrotation Yrotation Xrotation
					JOINT rForeArm
					{
						OFFSET -10.139888 0.000000 0.000000 
						CHANNELS 3 Yrotation Zrotation Xrotation
						JOINT rHand
						{
							OFFSET -8.370511 0.000000 0.000000 
							CHANNELS 3 Zrotation Yrotation Xrotation
							End Site
							{
								OFFSET -4.083176 0.000000 0.000000 
							}
						}
					}
				}
			}
		}
	}
	JOINT lThigh
	{
		OFFSET 5.308129 -1.633274 1.361059 
		CHANNELS 3 Xrotation Zrotation Yrotation
		JOINT lShin
		{
			OFFSET -2.041588 -20.007561 0.000000 
			CHANNELS 3 Xrotation Zrotation Yrotation
			JOINT lFoot
			{
				OFFSET 0.000000 -19.190928 -1.224953 
				CHANNELS 3 Xrotation Yrotation Zrotation
				End Site
				{
					OFFSET 0.000000 -2.449906 4.627600 
				}
			}
		}
	}
	JOINT rThigh
	{
		OFFSET -5.308129 -1.633274 1.361059 
		CHANNELS 3 Xrotation Zrotation Yrotation
		JOINT rShin
		{
			OFFSET 2.041588 -20.007561 0.000000 
			CHANNELS 3 Xrotation Zrotation Yrotation
			JOINT rFoot
			{
				OFFSET 0.000000 -19.190928 -1.224953 
				CHANNELS 3 Xrotation Yrotation Zrotation
				End Site
				{
					OFFSET 0.000000 -2.449906 4.627600 
				}
			}
		}
	}
}
MOTION
Frames: 18
Frame Time: 0.016667
-23.986677 47.239468 0.478788 -10.091295 7.010458 1.092566 40.202332 0.146459 -1.074215 -14.259042 4.862914 -0.705561 5.841700 0.240687 9.648555 17.591824 -16.042540 9.411055 -4.464121 -7.206271 -0.009659 -75.341423 12.055241 -18.665951 -47.639656 4.376366 59.258545 -11.345846 14.566119 -2.886887 11.611264 -0.382825 -0.009566 65.883446 -19.785870 -2.068032 51.945774 -3.269215 39.334625 -4.069131 -5.280389 0.364749 -21.177614 29.429935 -7.311268 45.557255 -0.347477 -3.353035 26.673822 -7.496690 -8.803549 -17.758787 -25.892502 3.435947 48.317802 0.148970 3.439202 2.653290 3.409424 12.017371 
-23.283804 47.016476 0.584757 -10.067085 6.796159 0.836957 39.939125 0.136700 -0.957029 -14.117827 4.521255 -0.577458 5.436170 0.385166 9.590085 17.444639 -16.073671 9.361477 -4.288319 -7.079348 -0.009664 -74.854408 12.475831 -19.591965 -48.677509 4.384141 59.374931 -11.263018 14.280327 -2.821117 11.630814 -0.275406 -0.009565 65.777725 -20.299253 -1.655988 52.119362 -3.238133 38.953598 -4.483809 -5.657332 0.433020 -19.086178 29.906239 -7.686067 42.407528 -0.549574 -3.182429 27.209482 -8.609648 -8.187264 -18.074358 -26.531094 4.116443 48.493443 0.148915 3.447302 3.028507 3.527156 12.011387 
-22.580799 46.793549 0.690714 -10.050806 6.571932 0.580209 39.666252 0.117175 -0.839842 -13.978064 4.169793 -0.450160 5.041729 0.539325 9.531743 17.295866 -16.114441 9.311897 -4.112514 -6.942659 -0.009669 -74.370522 12.910866 -20.521532 -49.722256 4.386231 59.488461 -11.187776 13.986230 -2.744927 11.640625 -0.156250 0.000000 65.678314 -20.820745 -1.242559 52.294407 -3.216290 38.566837 -4.889402 -6.033641 0.504736 -16.999308 30.397621 -8.015772 39.265034 -0.709043 -3.036844 27.736095 -9.725400 -7.555153 -18.396446 -27.165960 4.803646 48.658970 0.131898 3.457352 3.405039 3.647906 11.985645 
-21.806881 46.607300 0.790983 -9.989974 6.142297 0.551050 39.284630 0.205063 -0.693355 -13.921838 4.013592 -0.361809 4.853697 0.818712 9.493302 16.905409 -15.891477 9.331986 -4.122237 -6.698517 -0.009674 -74.023361 13.598997 -21.211243 -50.896194 4.374650 59.287434 -10.962155 14.111932 -2.712223 11.621108 0.085923 -0.009580 65.541756 -21.564463 -1.091006 52.558567 -3.198823 38.354919 -5.506973 -5.920938 0.559137 -15.472170 30.724606 -8.045084 37.272976 -0.796953 -2.957861 27.806608 -11.259449 -6.771226 -18.259188 -27.575485 5.468266 48.239738 0.151470 3.436657 3.967510 3.333921 11.963624 
-21.032787 46.421158 0.891310 -9.937479 5.712647 0.530557 38.893684 0.292955 -0.546868 -13.875858 3.857378 -0.273475 4.675056 1.098161 9.454929 16.524879 -15.668538 9.352216 -4.131962 -6.454375 -0.009678 -73.690498 14.292845 -21.898100 -52.070549 4.366564 59.094139 -10.733906 14.239412 -2.669293 11.601617 0.320302 -0.009621 65.399704 -22.307459 -0.934040 52.822559 -3.182726 38.143085 -6.124312 -5.807775 0.612176 -13.952302 31.051287 -8.074050 35.271774 -0.884805 -2.846984 27.907759 -12.846354 -5.951588 -18.142036 -27.995239 6.176694 47.821178 0.197756 3.407744 4.523237 2.996361 11.957973 
-20.168083 46.293854 1.020931 -10.078261 5.292243 0.951334 38.551178 0.332013 -0.605459 -13.794742 4.101485 -0.352059 4.553936 1.455357 9.270761 16.090040 -15.402969 9.239935 -4.112395 -6.249300 -0.009683 -73.357811 14.941309 -21.927546 -53.013973 4.324052 58.405117 -10.443943 14.452783 -2.642497 11.357484 0.369171 -0.009637 65.382843 -23.138048 -1.066359 53.125980 -3.167452 37.864334 -6.249819 -5.612252 0.602906 -12.702385 30.855776 -7.713202 34.363235 -0.933821 -2.806445 27.007742 -13.201389 -6.007428 -17.183012 -28.559187 6.497431 46.924442 0.246946 3.357229 5.130033 2.365114 11.969862 
-19.303158 46.166714 1.150525 -10.215246 4.881420 1.372200 38.198776 0.380835 -0.654282 -13.713479 4.335820 -0.420935 4.440287 1.812913 9.086716 15.653074 -15.127141 9.137236 -4.102592 -6.034458 -0.009687 -73.021736 15.599797 -21.948029 -53.954178 4.301717 57.709259 -10.151580 14.677587 -2.605965 11.113351 0.418040 -0.009654 65.374237 -23.954739 -1.195195 53.429684 -3.146411 37.591000 -6.365407 -5.407191 0.591758 -11.451939 30.649059 -7.376877 33.455009 -0.978195 -2.754266 26.095934 -13.536859 -6.076352 -16.217562 -29.136904 6.807559 46.027649 0.295759 3.305988 5.748956 1.766197 11.987947 
-18.332735 46.131886 1.265399 -10.397492 4.605918 2.224534 37.855068 0.371041 -0.966777 -13.568700 5.107036 -0.705549 4.127583 1.756698 8.744476 15.448862 -14.792212 8.809714 -3.936587 -6.093080 -0.009688 -72.717224 16.001787 -21.345999 -54.619526 4.249095 56.876686 -9.817158 14.934671 -2.552718 10.869179 0.222768 -0.009628 65.413940 -24.796204 -1.758390 53.763477 -3.126003 37.317524 -6.395546 -5.474822 0.602090 -10.455135 29.905085 -6.419306 33.328686 -0.997668 -2.724224 23.373100 -12.265572 -7.251763 -14.675046 -29.996408 6.848243 44.690865 0.364298 3.260442 6.793356 1.202354 12.012598 
-17.362106 46.097267 1.380100 -10.587187 4.329678 3.085079 37.501762 0.361239 -1.269506 -13.421866 5.878032 -0.991143 3.805505 1.700356 8.392486 15.251876 -14.446605 8.482495 -3.770581 -6.151701 -0.009688 -72.420715 16.386156 -20.743315 -55.292595 4.210478 56.020332 -9.494772 15.189586 -2.508504 10.615242 0.037264 -0.009605 65.453926 -25.634794 -2.324606 54.091438 -3.104313 37.054966 -6.415787 -5.532844 0.610462 -9.479742 29.164795 -5.490001 33.212357 -1.007347 -2.691918 20.709898 -10.971772 -8.374482 -13.112372 -30.854851 6.860827 43.344845 0.442426 3.197387 7.834691 0.641516 12.058220 
-16.290493 46.173187 1.406130 -10.634170 4.325334 4.016053 37.220867 0.204999 -1.591787 -13.433467 6.551193 -1.247733 3.501491 1.508831 7.942340 14.771957 -13.705621 8.082384 -3.858484 -6.220046 -0.009686 -72.005890 16.501459 -19.709047 -55.579697 4.163472 55.062332 -9.375570 15.405497 -2.520840 10.263650 -0.128693 -0.009609 65.797020 -26.298861 -3.472650 54.241413 -3.121917 37.231236 -6.324398 -5.232883 0.568812 -9.030815 27.886660 -4.302022 33.396683 -0.982529 -2.742843 17.498697 -9.854871 -9.298597 -11.802175 -32.014423 7.118116 41.909504 0.504528 3.161515 9.701544 0.440526 12.091259 
-15.218873 46.249359 1.432009 -10.690153 4.329584 4.946285 36.941719 0.048801 -1.923827 -13.441389 7.224093 -1.505610 3.190739 1.316790 7.492284 14.292031 -12.972615 7.676468 -3.946386 -6.288390 -0.009684 -71.590675 16.602346 -18.661592 -55.862328 4.114693 54.092537 -9.243504 15.623522 -2.517738 9.902295 -0.284883 -0.009620 66.157646 -26.967077 -4.630339 54.398270 -3.126285 37.406288 -6.232433 -4.933866 0.518392 -8.600453 26.595646 -3.160224 33.572296 -0.972671 -2.758587 14.319567 -8.709441 -10.156551 -10.475412 -33.188057 7.373032 40.465164 0.582934 3.100629 11.575444 0.243924 12.151155 
-14.145068 46.452885 1.380078 -10.506748 4.458799 5.897492 36.658356 -0.204923 -2.226583 -13.544538 7.838327 -1.713970 2.696482 0.959525 7.032384 13.949686 -12.306815 7.226340 -4.083128 -6.425086 -0.009680 -71.167122 16.185886 -17.898804 -55.561012 4.091461 53.576801 -9.621597 15.462452 -2.596682 9.638595 -0.460619 -0.009627 66.857101 -27.531033 -6.135458 54.422653 -3.163562 37.943989 -6.297787 -4.564391 0.482910 -8.592580 25.056952 -2.428993 33.415852 -0.982532 -2.753525 12.237031 -8.305032 -10.532881 -9.677319 -34.257046 7.982332 39.109188 0.657885 3.021848 14.067864 0.067828 12.186922 
-13.071430 46.656567 1.328045 -10.328712 4.586327 6.848720 36.367992 -0.458534 -2.539216 -13.643909 8.452278 -1.934892 2.198209 0.601490 6.572722 13.607176 -11.648957 6.769720 -4.219871 -6.561782 -0.009675 -70.761253 15.769368 -17.130156 -55.260201 4.059971 53.047554 -9.999180 15.301046 -2.671071 9.365130 -0.626589 -0.009635 67.576172 -28.091219 -7.648073 54.446255 -3.199960 38.478054 -6.354180 -4.184294 0.455257 -8.589951 23.526711 -1.712371 33.260818 -1.007363 -2.704082 10.137302 -7.893484 -10.909114 -8.884423 -35.318771 8.570292 37.741745 0.710714 2.982483 16.537142 -0.138292 12.262843 
-12.080686 46.937630 1.224892 -10.213751 4.713257 7.692897 36.353451 -0.721804 -2.783474 -13.678327 8.920126 -2.055128 1.546895 0.126213 6.191435 13.122339 -10.997451 6.386797 -4.112497 -6.845003 -0.009671 -70.338951 14.676656 -17.072798 -54.387138 4.062945 52.936249 -10.321350 15.257417 -2.751018 9.257678 -0.802352 -0.009637 68.495140 -28.245584 -9.053885 54.218395 -3.270513 39.478401 -6.489716 -3.989135 0.443228 -8.591032 22.055262 -1.591819 32.888847 -1.017165 -2.707530 9.310976 -8.017388 -10.999518 -8.444202 -35.912735 9.245104 36.932690 0.759644 2.910012 18.159716 -0.229321 12.330942 
-11.090196 47.218773 1.121683 -10.104689 4.838634 8.537101 36.331223 -0.984960 -3.018140 -13.716362 9.387807 -2.186630 0.892082 -0.349750 5.820383 12.637314 -10.354247 6.004719 -4.014890 -7.128222 -0.009666 -69.920135 13.586720 -17.021763 -53.500484 4.062058 52.821625 -10.643393 15.213379 -2.830570 9.150228 -0.968350 -0.009640 69.425797 -28.384090 -10.468184 53.986362 -3.338181 40.473881 -6.625337 -3.803757 0.431391 -8.608732 20.586859 -1.494286 32.507816 -1.026953 -2.691046 8.460195 -8.174029 -11.093431 -8.035825 -36.511379 9.943139 36.113297 0.814525 2.848104 19.783709 -0.329258 12.379331 
-10.226433 47.543880 0.991220 -10.026821 4.637995 9.132309 36.437298 -0.975252 -2.969317 -13.887300 9.387987 -2.157726 0.373993 -0.573474 5.547085 12.225384 -9.795547 5.728117 -3.975834 -7.167292 -0.009666 -69.782158 12.459688 -17.702579 -52.483345 4.049368 52.649670 -10.295268 16.135113 -2.898703 9.169760 -0.968353 -0.009639 70.251816 -28.356546 -10.975934 53.523769 -3.414489 41.604382 -6.760129 -3.502087 0.404905 -8.592979 19.559053 -1.793270 32.087898 -1.056139 -2.658317 8.182842 -8.116821 -11.136907 -8.045675 -36.237919 10.061652 36.122337 0.814540 2.867841 19.824883 -0.335078 12.386631 
-9.362839 47.868992 0.860708 -9.953051 4.437497 9.726850 36.542732 -0.955797 -2.910566 -14.068370 9.397926 -2.127228 -0.141065 -0.787667 5.273877 11.807001 -9.245826 5.450390 -3.936777 -7.196595 -0.009666 -69.618576 11.340631 -18.375772 -51.463932 4.047668 52.479057 -9.946594 17.058250 -2.952776 9.189289 -0.978122 -0.009639 71.067581 -28.313700 -11.487481 53.061398 -3.483653 42.728947 -6.904868 -3.210197 0.378691 -8.573466 18.514526 -2.092910 31.658869 -1.085315 -2.605488 7.912328 -8.116302 -11.164238 -8.073092 -35.961193 10.185444 36.132015 0.798971 2.873275 19.881369 -0.319049 12.387534 
-8.582588 48.190655 0.706446 -9.882866 3.993089 9.858158 36.639725 -0.819425 -2.666301 -14.101912 9.233028 -1.949034 -0.769724 -0.855976 5.098107 11.375787 -8.927433 5.278793 -3.946535 -7.147765 -0.009667 -69.864014 10.388275 -19.585918 -50.537678 4.022598 52.044571 -8.956289 18.635172 -2.873275 9.238126 -0.929302 -0.009638 71.232246 -27.871286 -10.680162 52.629856 -3.543518 43.576767 -6.540383 -2.766227 0.306856 -8.306668 17.659851 -2.691818 30.964434 -1.099738 -2.593535 7.705783 -7.178099 -11.317988 -8.647939 -34.962257 9.768101 36.971478 0.775383 2.916840 19.248123 -0.974324 12.579082 
